<svg width="100%" height="100%" viewBox="0 0 262 262" version="1.1" xmlns="http://www.w3.org/2000/svg" style="fill-rule:evenodd;clip-rule:evenodd;stroke-linejoin:round;stroke-miterlimit:2;">
  <path d="M261.88,39.282L261.88,222.598C261.88,244.278 244.278,261.88 222.598,261.88L39.282,261.88C17.602,261.88 0,244.278 0,222.598L0,39.282C0,17.602 17.602,0 39.282,0L222.598,0C244.278,0 261.88,17.602 261.88,39.282Z" style="fill:#E60012"/>
  <g transform="matrix(1.12681,0,0,1.12681,-16.6032,24.3897)">
    <path d="M83.3,45.87L61.67,45.87C47.66,45.87 36.3,57.23 36.3,71.24L36.3,119.44C36.3,133.45 47.66,144.81 61.67,144.81L83.3,144.81C83.7,144.81 84.03,144.49 84.03,144.08L84.03,46.59C84.03,46.19 83.71,45.87 83.3,45.87ZM76.04,136.83L61.67,136.83C57.02,136.83 52.66,135.02 49.37,131.74C46.08,128.46 44.28,124.09 44.28,119.44L44.28,71.24C44.28,66.59 46.09,62.22 49.37,58.94C52.66,55.66 57.02,53.85 61.67,53.85L76.04,53.85L76.04,136.84L76.04,136.83ZM61.01,66.25C66.15,66.25 70.31,70.42 70.31,75.55C70.31,80.68 66.15,84.85 61.01,84.85C55.87,84.85 51.71,80.68 51.71,75.55C51.71,70.42 55.88,66.25 61.01,66.25ZM109.87,45.87L94.56,45.87C94.2,45.87 93.92,46.16 93.92,46.52L93.92,144.09C93.92,144.49 94.24,144.82 94.64,144.82L109.87,144.82C123.88,144.82 135.24,133.46 135.24,119.45L135.24,71.25C135.24,57.24 123.88,45.88 109.87,45.88L109.87,45.87ZM113.5,110.29C107.97,110.29 103.5,105.81 103.5,100.29C103.5,94.77 107.98,90.29 113.5,90.29C119.02,90.29 123.5,94.77 123.5,100.29C123.5,105.81 119.02,110.29 113.5,110.29Z" style="fill:#FFF;fill-rule:nonzero;"/>
  </g>
  <g transform="matrix(1.12681,0,0,1.12681,-16.6032,24.3897)">
   <path d="M151.91,144.81L151.91,127.8C153.67,126.36 160.31,120.64 167.34,114.6C173.66,109.16 179.97,103.71 186.41,98.42C191.26,94.43 200.48,87.11 200.77,79.93C201.12,71.49 195.13,66.02 186.19,66.02C180.86,66.02 174.61,68.98 170.82,72.2C167.03,75.42 162.17,79.58 162.17,79.58L148.16,64.4C160.05,51.07 172.84,44.31 186.16,44.31C214.56,43.61 235.96,75.26 214.36,100.07C206.52,108.71 197.63,116.8 188.48,123.99L225.56,123.99L225.56,144.81L151.89,144.81L151.91,144.81Z" style="fill:#FFF;fill-rule:nonzero;"/>
  </g>
</svg>
