<svg xmlns="http://www.w3.org/2000/svg" viewBox="0 -6 48 39" width="48" height="32" fill="none" stroke="currentColor" stroke-linecap="round" stroke-width="1.5">
  <circle cx="10.5" cy="19.5" r="6.5" stroke-width="4"/>
  <circle cx="39" cy="19.5" r="6.5" stroke-width="4"/>
  <path d="m1.660040177104747,8.422464845030845l7.057190331132006-6.175041539738231c.182291494589663-.159505057765273.416281461879407-.247423305292614.658504607867144-.247423305292614h3.624264883896103l.723606797750108-1.447213595500216c.169392014135155-.33878402827213.515655132545362-.552786404499784.894427191000432-.552786404499784h2.88196601124946c.276142374916162,0,.5.223857625083838.5.5v1c0,.276142374916162-.223857625083838.5-.5.5h-2.5v1l2.999999999998181.999999999998181,2,2h7l8-2h10c.552284749830505,0,1,.447715250169495,1,1v4c0,.552284749830505-.447715250169495,1-1,1h-2v3h-6l-8.748075441508263,5.832050294338842c-.164267517278859.109511678187118-.357275210741136.167949705661158-.554700196222257.167949705661158h-9.69722436226948l-8-7H3.535183758487619c-.334353187910892,0-.646584515394352-.167101135361008-.832050294337023-.445299803774105l-1.216638973513909-1.824958460270864c-.27838108895412-.41757163343209-.204141433925543-.976800660580921.17354568646806-1.307276890924186Z" fill="currentColor" stroke="none"/>
  <line x1="46" y1="12" x2="44" y2="14"/>
  <line x1="4" y1="16" x2="1" y2="14"/>
</svg>
