<svg xmlns="http://www.w3.org/2000/svg" viewBox="-1 -5 47 35" width="48" height="32" fill="none" stroke="currentColor" stroke-width="2">
  <circle cx="39" cy="19" r="6"/>
  <circle cx="7.5" cy="19" r="6"/>
  <path d="m5.045875846697527,8.11181544145802c2.202793000353267-1.751959048486242,5.272867216963277-3.533785747828006,7.954124153302473-4.11181544145802l1.641257951707303-3.282515903418243c.209608407742053-.419216815485925.682258337494204-.63660502428138,1.13696281603734-.522928904645596l3.221779232253539.805444808063839v1l-3,1v1h3l5.562596011312053,2.781098371513508c.276205389947791.138092782330204.600385880008616.136423046282289.878651847922811.002530981282689,3.744801647608256-1.801870452827643,7.586063158129036-2.728924499841014,13.978037562519603-2.78125550392906.35452295882169-.00290247445264.692689557543417.184350279279897.875098990969491.488359738485087l2.215029200060599,3.691639278633374c.274637516225994.4577197638082.141355906775061,1.050447454308596-.302785298032177,1.346541590846755l-5.206628314752379,3.471085543167646h-9l2,2h4l-1,6.414720654507619-8-1.414720654507619-.707106781186667.707106781186667c-.187536455232475.187536455232475-.441890182755742.292893785514025-.707106781183029.292894794250969l-3.047171794771202.000011589747373c-.336195666388448.000001278700438-.658090585566242-.161889162771331-.837794818300608-.446026303668987-1.037053881234897-1.63972500973432-1.700819824556675-3.724373571447359-1.700819824556675-5.553986861516023h-1.279240779946122c-.430430408072425,0-.812569251678724-.275430094870899-.948683298049218-.6837722339842l-1.77207592200466-5.3162277660158h-1v7l-6-3,3-4-4.634647781209424.000035893719541c-.471096502269575.000003648478014-.688178408761814-.594978704519235-.31947637209305-.888220452261521Z" fill="currentColor" stroke="none"/>
</svg>
