<svg xmlns="http://www.w3.org/2000/svg" width="16" height="16" viewBox="0 0 16 16" fill="none" stroke="currentColor" stroke-width="1.5">
  <path d="M12.93,10.528l.529,1.412a.427.427,0,0,1-.1.452l-.971.971a.428.428,0,0,1-.452.1l-1.412-.529a.855.855,0,0,0-1.078.447L8.825,14.75A.428.428,0,0,1,8.436,15H7.064a.427.427,0,0,1-.389-.251l-.624-1.373a.855.855,0,0,0-1.078-.447l-1.412.529a.428.428,0,0,1-.452-.1l-.97-.971a.427.427,0,0,1-.1-.452l.529-1.412A.854.854,0,0,0,2.123,9.45L.75,8.826A.427.427,0,0,1,.5,8.437V7.065a.427.427,0,0,1,.25-.389l1.373-.624A.854.854,0,0,0,2.57,4.974L2.04,3.562a.427.427,0,0,1,.1-.452l.97-.97a.427.427,0,0,1,.452-.1l1.412.529a.854.854,0,0,0,1.078-.447L6.675.751A.427.427,0,0,1,7.064.5H8.436a.427.427,0,0,1,.389.25l.624,1.372a.855.855,0,0,0,1.078.447l1.412-.529a.427.427,0,0,1,.452.1l.971.97a.427.427,0,0,1,.1.452L12.93,4.974a.855.855,0,0,0,.447,1.078l1.373.624A.427.427,0,0,1,15,7.065V8.437a.427.427,0,0,1-.251.389l-1.373.624A.855.855,0,0,0,12.93,10.528Z" transform="translate(.25 .249)"/>
  <circle cx="8" cy="8" r="2"/>
</svg>
