<svg xmlns="http://www.w3.org/2000/svg" viewBox="0 -3 48 29" width="48" height="32" fill="none" stroke="currentColor" stroke-width="1.5" stroke-linecap="round">
  <line x1="15.5" y1="4.5" x2="18.5" y2="8.5"/>
  <circle cx="15" cy="18" r="4" stroke-width="2"/>
  <circle cx="37" cy="17" r="5" stroke-width="2"/>
  <path d="m1.253592424842282,15.443890225865289l3.458472087168047,6.052269803878517c.178045264596221.311576312164107.509392149517225.50386175217136.868251334350134.503858938956l2.419684153639537-0,3-2.000000000000909v-4h-2v-1.531625054015421c0-.296779842517026.13182300995868-.578227454283478.359815600335423-.768221279597128l5.640184399664577-4.700153666386541-.999976015526045-2c-3.766663598531522,0-11.080211289361614,4.433606802360373-12.755609365247437,7.455875241415015-.171218154053349.30886225228187-.166032519160581.681392713827336.009177805615764.988007927496255Z" fill="currentColor" stroke="none"/>
  <path d="m19,16l1,0c0-3,3-4,6-4,.691107424476286-2.896032559360719,2.570876616462556-5.442516964828428,5.859959951418205-5.919858454493806.599696488225163-.087033372487895,1.140031826069389.392096723991017,1.140035087488286.998075837413126l.000004961093509.921782617079771h1s3.262854982933277-4.894282474400825,8.315146264380019-7.315504847936609c.927046509164938-.44427085143252,2.043173866086363-.057435144361989,2.553204266067041.835123431127613l2.120687915274175,3.711226202967737c.535317088586453.936810547063942.238985124031387,2.144435008986875-.688806510486756,2.695235398732621-4.598612298394073,2.730049886213237-5.841591568047079,5.463326526613855-5.841591568047079,5.463326526613855l-3.4586403671874-1.389406711505217-4,2-1,3,1,3-3,1h-9l-2-2v-3Z" fill="currentColor" stroke="none"/>
  <line x1="14.5" y1="8" x2="17" y2="6.5" stroke-width="1"/>
</svg>
