<svg xmlns="http://www.w3.org/2000/svg" viewBox="0 -6 48 36" width="48" height="32" fill="none" stroke="currentColor" stroke-width="2">
  <circle cx="7" cy="19" r="5.5"/>
  <circle cx="40.5" cy="18.5" r="6"/>
  <path d="m8.295889756414908.607173024578515c-5.365397634213878,4.78955627801588-6.052933183498681,9.392826975421485-.295889756414908,9.392826975421485l-3.447213595500216,1.723606797750108c-.33878402827213.169392014136974-.552786404499784.515655132545362-.552786404499784.894427190998613v1.381966011251279h7l3,9h16c.552284749830505,0,1-.447715250169495,1-1v-2h1l5.470308972475323,4.558590810396709c.088645611047468.07387134253986.211230727660222-.036281260194301.147223469401069-.13229214758212l-3.617532441876392-5.426298662814588,3.724940017878907-6.518645031290362c.055287243514613-.096752676148753-.065236014463153-.197774971555191-.150842754177575-.126436021793779l-5.574097263701333,4.645081053084141h-1c0-2,2-7,14-9v-3c0-.552284749830505-.447715250169495-1-1-1h-6c-1.888543819997722,0-3.666873707999912.889164944001095-4.8,2.4l-1.2,1.6h-4c-4-2-8-4-13-2L9.657036610145951.657119105730089c-.370398553854102-.370392834884115-.970375460587093-.398777930513461-1.361146853731043-.049946081151575Z" fill="currentColor" stroke="none"/>
  <path d="m39,8h3v2c0,.551915024493331-.448084975505452.999999999998787-.999999999998785.999999999998787h-1c-.551915024493667,0-1-.448084975505729-1-1v-2h0Z" fill="currentColor" stroke="none"/>
</svg>
