<svg xmlns="http://www.w3.org/2000/svg" viewBox="0 0 24 24" fill="currentColor">
  <path d="M1.723,21C1.367,21 1.037,20.81 0.858,20.502C0.679,20.194 0.678,19.813 0.855,19.504C3.058,15.648 8.914,5.401 11.132,1.519C11.31,1.208 11.641,1.016 12,1.016C12.359,1.016 12.69,1.208 12.868,1.519C15.086,5.401 20.942,15.648 23.145,19.504C23.322,19.813 23.321,20.194 23.142,20.502C22.963,20.81 22.633,21 22.277,21C17.855,21 6.145,21 1.723,21ZM13.5,16L10.5,16L10.5,19L13.5,19L13.5,16ZM13.5,6L10.5,6L10.5,14L13.5,14L13.5,6Z"/>
</svg>
