<svg viewBox="0 0 4396 3301" fill="rgb(0,150,200)" style="opacity: .5">
  <g transform="matrix(4.16667,0,0,4.16667,-6474.79,-2862.27)">
    <g transform="matrix(39.8018,0,0,39.8018,-901.821,686.945)">
      <path d="M75,13.2C77,13.2 78.5,11.6 78.5,9.2L78.5,0L71.5,0L71.5,9.2C71.5,11.7 73,13.2 75,13.2M84.8,0L81.8,0L81.8,9.3C81.8,13.8 79.2,16.2 75,16.2C70.8,16.2 68.2,13.8 68.2,9.3L68.2,0L65.2,0C63,0 61.7,1.3 61.7,3.5L61.7,14.9C61.7,18.2 63.4,19.9 66.7,19.9L83.2,19.9C86.5,19.9 88.2,18.2 88.2,14.9L88.2,3.5C88.3,1.3 87,0 84.8,0"/>
    </g>
  </g>
</svg>
